<svg xmlns="http://www.w3.org/2000/svg" width="27.551" height="27.55" viewBox="0 0 27.551 27.55">
  <g id="AppLight" transform="translate(0 -0.003)">
    <path id="Pfad_114" data-name="Pfad 114" d="M103.321,183.46a.94.94,0,0,0-.94.94v2.673a.94.94,0,1,0,1.88,0V184.4A.94.94,0,0,0,103.321,183.46Z" transform="translate(-89.547 -160.46)"/>
    <path id="Pfad_115" data-name="Pfad 115" d="M103.321,4.557a.94.94,0,0,0,.94-.94V.943a.94.94,0,0,0-1.88,0V3.616A.94.94,0,0,0,103.321,4.557Z" transform="translate(-89.547)"/>
    <path id="Pfad_116" data-name="Pfad 116" d="M32.153,159.989l-1.891,1.89a.94.94,0,0,0,1.329,1.33l1.891-1.89a.94.94,0,1,0-1.329-1.33Z" transform="translate(-26.228 -139.691)"/>
    <path id="Pfad_117" data-name="Pfad 117" d="M160.649,33.76a.937.937,0,0,0,.665-.275L163.2,31.6a.94.94,0,1,0-1.329-1.33l-1.891,1.89a.94.94,0,0,0,.665,1.605Z" transform="translate(-139.689 -26.228)"/>
    <path id="Pfad_118" data-name="Pfad 118" d="M4.553,103.335a.94.94,0,0,0-.94-.94H.94a.94.94,0,1,0,0,1.88H3.613A.94.94,0,0,0,4.553,103.335Z" transform="translate(0 -89.557)"/>
    <path id="Pfad_119" data-name="Pfad 119" d="M187.066,102.395h-2.674a.94.94,0,0,0,0,1.88h2.674a.94.94,0,1,0,0-1.88Z" transform="translate(-160.456 -89.557)"/>
    <path id="Pfad_120" data-name="Pfad 120" d="M32.159,33.486a.94.94,0,0,0,1.329-1.33l-1.89-1.89A.94.94,0,0,0,30.27,31.6Z" transform="translate(-26.234 -26.229)"/>
    <path id="Pfad_121" data-name="Pfad 121" d="M161.32,159.989a.94.94,0,0,0-1.33,1.329l1.89,1.89a.94.94,0,1,0,1.33-1.329Z" transform="translate(-139.695 -139.691)"/>
    <path id="Pfad_122" data-name="Pfad 122" d="M58.833,51.518a7.318,7.318,0,1,0,7.318,7.318A7.326,7.326,0,0,0,58.833,51.518Zm0,12.755a5.437,5.437,0,1,1,5.438-5.437A5.443,5.443,0,0,1,58.833,64.273Z" transform="translate(-45.058 -45.057)"/>
  </g>
</svg>
