<svg xmlns="http://www.w3.org/2000/svg" width="50.534" height="50.533" viewBox="0 0 50.534 50.533">
  <g id="AppLPAIcon" transform="translate(0 -0.003)">
    <path id="Pfad_48" data-name="Pfad 48" d="M107.319,91.06A16.282,16.282,0,1,0,123.6,107.342,16.3,16.3,0,0,0,107.319,91.06Zm0,29.6a13.321,13.321,0,1,1,13.321-13.321A13.336,13.336,0,0,1,107.319,120.663Z" transform="translate(-82.055 -82.072)" fill="#2697ff"/>
    <path id="Pfad_49" data-name="Pfad 49" d="M181.273,196.493l-7.834,7.834-4.874-4.874a1.48,1.48,0,0,0-2.093,2.093l5.92,5.92a1.48,1.48,0,0,0,2.093,0l8.881-8.881a1.48,1.48,0,0,0-2.093-2.093Z" transform="translate(-149.653 -176.711)" fill="#2697ff"/>
    <path id="Pfad_50" data-name="Pfad 50" d="M48.415,14.891,43.245,11.8,42.086,7a4.421,4.421,0,0,0-4.659-3.385l-5.885.455-3.4-3a4.422,4.422,0,0,0-5.759,0l-3.4,3L13.1,3.611A4.42,4.42,0,0,0,8.457,6.942L6.843,12.085,2.12,14.891A4.422,4.422,0,0,0,.34,20.368l2.014,4.88L.34,30.128a4.422,4.422,0,0,0,1.78,5.477L7.28,38.68,8.444,43.5a4.42,4.42,0,0,0,4.308,3.4c.312,0-.038.012,6.175-.464l3.458,3.034a4.422,4.422,0,0,0,5.759,0L31.6,46.436l5.824.451A4.422,4.422,0,0,0,42.086,43.5l1.159-4.8c6.32-3.783,4.98-2.977,5.17-3.095a4.422,4.422,0,0,0,1.779-5.477l-2.014-4.88,2.014-4.88a4.422,4.422,0,0,0-1.78-5.477Zm-3.2,10.922,2.247,5.445a1.474,1.474,0,0,1-.587,1.822l-5.679,3.4a1.48,1.48,0,0,0-.679.923l-1.305,5.405a1.473,1.473,0,0,1-1.553,1.128l-6.446-.5a1.481,1.481,0,0,0-1.09.363l-3.9,3.423a1.474,1.474,0,0,1-1.906,0l-3.9-3.423a1.48,1.48,0,0,0-1.09-.363l-6.446.5a1.474,1.474,0,0,1-1.553-1.128l-1.31-5.426a1.48,1.48,0,0,0-.681-.924L3.663,33.079a1.474,1.474,0,0,1-.586-1.821l2.247-5.445a1.48,1.48,0,0,0,0-1.129L3.076,19.239a1.474,1.474,0,0,1,.585-1.821l5.18-3.078a1.48,1.48,0,0,0,.656-.829c1.909-6.087,1.8-5.73,1.824-5.821a1.472,1.472,0,0,1,1.553-1.128l6.51.5A1.48,1.48,0,0,0,20.478,6.7l3.835-3.385a1.474,1.474,0,0,1,1.9,0L30.052,6.7a1.481,1.481,0,0,0,1.094.366l6.51-.5A1.474,1.474,0,0,1,39.208,7.69L40.513,13.1a1.48,1.48,0,0,0,.679.923l5.679,3.4a1.474,1.474,0,0,1,.587,1.822l-2.247,5.445a1.48,1.48,0,0,0,0,1.129Z" transform="translate(0 0)" fill="#2697ff"/>
  </g>
</svg>
