<svg xmlns="http://www.w3.org/2000/svg" width="40.286" height="47" viewBox="0 0 40.286 47">
  <g id="bfIcon" transform="translate(-4 -2)">
    <path id="XMLID_1124_" d="M24.143,2A10.082,10.082,0,0,0,14.071,12.071v3.357H5.679A1.679,1.679,0,0,0,4.01,17.292L6.869,43.026A6.709,6.709,0,0,0,13.543,49h21.2a6.705,6.705,0,0,0,6.672-5.974l2.86-25.734a1.679,1.679,0,0,0-1.669-1.863H34.214V12.071A10.082,10.082,0,0,0,24.143,2ZM17.429,12.071a6.714,6.714,0,1,1,13.429,0v3.357H17.429Zm23.3,6.714L38.078,42.657a3.352,3.352,0,0,1-3.335,2.986h-21.2a3.354,3.354,0,0,1-3.337-2.986L7.554,18.786h6.518v3.357a1.679,1.679,0,1,0,0,3.357h3.357a1.679,1.679,0,0,0,0-3.357V18.786H30.857v3.357a1.679,1.679,0,1,0,0,3.357h3.357a1.679,1.679,0,0,0,0-3.357V18.786Z" transform="translate(0)" fill="#8a8a8a"/>
    <path id="XMLID_108_" d="M26.477,18.368a1.679,1.679,0,0,1,.262,2.36l-6.714,8.393a1.679,1.679,0,0,1-2.241.347l-5.036-3.357a1.679,1.679,0,1,1,1.863-2.793l3.755,2.5,5.752-7.191A1.678,1.678,0,0,1,26.477,18.368Z" transform="translate(5.429 10.857)" fill="#8a8a8a"/>
  </g>
</svg>
