<svg xmlns="http://www.w3.org/2000/svg" width="48.457" height="42.755" viewBox="0 0 48.457 42.755">
  <g id="bmaIcon" transform="translate(0 -30.125)">
    <path id="Pfad_89" data-name="Pfad 89" d="M47.037,38.678H34.2V35.857a5.739,5.739,0,0,0-5.732-5.732H19.988a5.739,5.739,0,0,0-5.732,5.732v2.821H1.42A1.42,1.42,0,0,0,0,40.1v25.79A7,7,0,0,0,6.992,72.88H41.465a7,7,0,0,0,6.992-6.992V40.1A1.42,1.42,0,0,0,47.037,38.678ZM27.45,57.2a3.221,3.221,0,1,1-6.442,0V53.983H27.45Zm1.42-6.06H19.588a1.42,1.42,0,0,0-1.42,1.42v2.579C9.913,53.351,3.724,48,2.928,41.518h42.6c-.8,6.478-6.985,11.833-15.24,13.625V52.564a1.42,1.42,0,0,0-1.42-1.42ZM17.095,35.857a2.9,2.9,0,0,1,2.893-2.893h8.481a2.9,2.9,0,0,1,2.893,2.893v2.821H17.095V35.857ZM45.618,65.888a4.157,4.157,0,0,1-4.152,4.152H6.992a4.157,4.157,0,0,1-4.152-4.152V48.839A19.928,19.928,0,0,0,7.248,53.33a26.745,26.745,0,0,0,10.981,4.726,6.059,6.059,0,0,0,12,0A26.746,26.746,0,0,0,41.209,53.33a19.93,19.93,0,0,0,4.409-4.491Z" fill="#8a8a8a"/>
  </g>
</svg>
