<svg xmlns="http://www.w3.org/2000/svg" width="50.534" height="45.247" viewBox="0 0 50.534 45.247">
  <path id="gmIcon" d="M47.21,36.569V31.295A4.517,4.517,0,0,0,42.7,26.783H4.512A4.517,4.517,0,0,0,0,31.295v23.25a4.517,4.517,0,0,0,4.512,4.512H15.085L14.5,63.8H11.878a4.117,4.117,0,0,0,0,8.233H45.8A4.738,4.738,0,0,0,50.534,67.3V41.088A4.741,4.741,0,0,0,47.21,36.569ZM3.158,54.545V31.295a1.355,1.355,0,0,1,1.353-1.353H42.7a1.355,1.355,0,0,1,1.353,1.353v5.06H33.479a4.738,4.738,0,0,0-4.733,4.733V55.9H4.512a1.355,1.355,0,0,1-1.353-1.353Zm15.109,4.512H28.746V63.8H17.682ZM10.92,67.914a.971.971,0,0,1,.958-.958H28.746V67.3a4.712,4.712,0,0,0,.27,1.575H11.878a.971.971,0,0,1-.958-.958ZM47.376,67.3A1.576,1.576,0,0,1,45.8,68.872H33.479A1.576,1.576,0,0,1,31.9,67.3V41.088a1.576,1.576,0,0,1,1.575-1.575H45.8a1.576,1.576,0,0,1,1.575,1.575Zm-5.441-3.006A2.294,2.294,0,1,1,39.64,62,2.3,2.3,0,0,1,41.935,64.292Z" transform="translate(0 -26.783)" fill="#8a8a8a" fill-rule="evenodd"/>
</svg>
