<svg xmlns="http://www.w3.org/2000/svg" xmlns:xlink="http://www.w3.org/1999/xlink" width="30.212" height="27.716" viewBox="0 0 30.212 27.716">
  <defs>
    <clipPath id="clip-path">
      <rect id="Rechteck_363" data-name="Rechteck 363" width="30.212" height="27.716" transform="translate(0 0)" fill="none"/>
    </clipPath>
  </defs>
  <g id="Gruppe_400" data-name="Gruppe 400" transform="translate(0 0)">
    <g id="Gruppe_399" data-name="Gruppe 399" clip-path="url(#clip-path)">
      <path id="Pfad_318" data-name="Pfad 318" d="M21.292,19.821a1,1,0,0,1-.707-.293L15.67,14.614V6.592a1,1,0,1,1,2,0v7.194L22,18.114a1,1,0,0,1-.707,1.707" fill="#7b808a"/>
      <path id="Pfad_319" data-name="Pfad 319" d="M16.786,26.851A13.467,13.467,0,0,1,8.391,23.9a1,1,0,0,1,1.252-1.561,11.3,11.3,0,0,0,7.143,2.508,11.426,11.426,0,1,0-11.344-12.8,1,1,0,1,1-1.985-.238A13.426,13.426,0,1,1,16.786,26.851" fill="#7b808a"/>
      <path id="Pfad_320" data-name="Pfad 320" d="M4.71,17.1a1,1,0,0,1-.961-.726c-.049-.17-.094-.34-.136-.513a1,1,0,0,1,1.944-.471c.035.146.074.291.115.436a1,1,0,0,1-.687,1.236,1.042,1.042,0,0,1-.275.038" fill="#7b808a"/>
      <path id="Pfad_321" data-name="Pfad 321" d="M6.2,21.186a1,1,0,0,1-.854-.479l-.26-.425A1,1,0,0,1,6.8,19.241l.26.424A1,1,0,0,1,6.2,21.186" fill="#7b808a"/>
    </g>
  </g>
</svg>
