<svg xmlns="http://www.w3.org/2000/svg" width="37.071" height="37.071" viewBox="0 0 37.071 37.071">
  <g id="LPAIcon.vue" transform="translate(0 -0.003)">
    <path id="Pfad_48" data-name="Pfad 48" d="M102.982,91.06A11.944,11.944,0,1,0,114.926,103,11.958,11.958,0,0,0,102.982,91.06Zm0,21.716A9.772,9.772,0,1,1,112.754,103,9.783,9.783,0,0,1,102.982,112.776Z" transform="translate(-84.448 -84.466)" fill="#fff"/>
    <path id="Pfad_49" data-name="Pfad 49" d="M177.214,196.378l-5.747,5.747-3.576-3.575a1.086,1.086,0,0,0-1.536,1.536l4.343,4.343a1.086,1.086,0,0,0,1.536,0l6.515-6.515a1.086,1.086,0,1,0-1.535-1.536Z" transform="translate(-154.018 -181.865)" fill="#fff"/>
    <path id="Pfad_50" data-name="Pfad 50" d="M35.516,10.925l-3.792-2.27-.85-3.522a3.243,3.243,0,0,0-3.418-2.483l-4.317.334L20.646.784a3.244,3.244,0,0,0-4.225,0l-2.492,2.2L9.612,2.649A3.243,3.243,0,0,0,6.2,5.094L5.02,8.866,1.555,10.925A3.244,3.244,0,0,0,.25,14.943l1.477,3.58L.25,22.1A3.244,3.244,0,0,0,1.555,26.12l3.786,2.256.854,3.537a3.242,3.242,0,0,0,3.16,2.493c.229,0-.028.009,4.53-.341l2.537,2.226a3.244,3.244,0,0,0,4.225,0l2.537-2.226,4.273.331a3.244,3.244,0,0,0,3.418-2.483l.85-3.522c4.636-2.775,3.653-2.184,3.792-2.27A3.244,3.244,0,0,0,36.822,22.1l-1.477-3.58,1.477-3.58a3.244,3.244,0,0,0-1.305-4.018Zm-2.35,8.012,1.648,3.994a1.081,1.081,0,0,1-.431,1.337l-4.166,2.494a1.086,1.086,0,0,0-.5.677L28.763,31.4a1.081,1.081,0,0,1-1.139.828l-4.729-.366a1.086,1.086,0,0,0-.8.266l-2.862,2.511a1.081,1.081,0,0,1-1.4,0l-2.861-2.511a1.086,1.086,0,0,0-.8-.266l-4.729.366A1.081,1.081,0,0,1,8.306,31.4l-.961-3.981a1.086,1.086,0,0,0-.5-.678L2.687,24.267a1.081,1.081,0,0,1-.43-1.336l1.648-3.994a1.085,1.085,0,0,0,0-.828L2.257,14.114a1.081,1.081,0,0,1,.429-1.336l3.8-2.258a1.086,1.086,0,0,0,.481-.608c1.4-4.465,1.322-4.2,1.338-4.271a1.08,1.08,0,0,1,1.139-.828l4.775.37a1.086,1.086,0,0,0,.8-.268l2.814-2.483a1.081,1.081,0,0,1,1.4,0l2.814,2.483a1.086,1.086,0,0,0,.8.268l4.775-.37a1.081,1.081,0,0,1,1.139.828l.957,3.965a1.086,1.086,0,0,0,.5.677l4.166,2.494a1.081,1.081,0,0,1,.431,1.337l-1.648,3.994a1.086,1.086,0,0,0,0,.828Z" transform="translate(0 0)" fill="#fff"/>
  </g>
</svg>
