<svg xmlns="http://www.w3.org/2000/svg" width="53.6" height="57.419" viewBox="0 0 53.6 57.419">
  <g id="pvIcon" transform="translate(-17)">
    <path id="Pfad_80" data-name="Pfad 80" d="M101.268,63.2h0a25.2,25.2,0,0,0-19.114,9.075,1.685,1.685,0,0,0,0,2.212l9.181,10.553a1.685,1.685,0,0,0,1.271.579H109.93a1.685,1.685,0,0,0,1.271-.579l9.181-10.553a1.685,1.685,0,0,0,0-2.212A25.2,25.2,0,0,0,101.268,63.2Zm-.99,19.049.99-2.144.99,2.144Zm8.884,0h-3.193l-3.172-6.87a1.685,1.685,0,0,0-3.06,0l-3.172,6.87H93.373L85.685,73.41a24.313,24.313,0,0,1,3.048-2.654l1.451,1.74a1.685,1.685,0,0,0,2.588-2.158L91.62,68.956a20.83,20.83,0,0,1,7.963-2.319v2.075a1.685,1.685,0,1,0,3.37,0V66.637a20.83,20.83,0,0,1,7.963,2.319l-1.152,1.382a1.685,1.685,0,0,0,2.588,2.158l1.451-1.74a24.313,24.313,0,0,1,3.047,2.654Z" transform="translate(-57.468 -56.099)" fill="#8a8a8a"/>
    <path id="Pfad_81" data-name="Pfad 81" d="M67.431,4.071A12.34,12.34,0,0,0,58.279,0H29.32A12.321,12.321,0,0,0,17.065,13.594l3.406,32.777A12.292,12.292,0,0,0,32.726,57.419H54.873A12.292,12.292,0,0,0,67.128,46.372l3.406-32.777a12.341,12.341,0,0,0-3.1-9.523Zm-.248,9.175L63.776,46.024a8.93,8.93,0,0,1-8.9,8.026H45.485V43.943a1.685,1.685,0,0,0-3.37,0V54.05H32.726a8.93,8.93,0,0,1-8.9-8.026L20.417,13.246a8.951,8.951,0,0,1,8.9-9.876H58.279a8.951,8.951,0,0,1,8.9,9.876Z" transform="translate(0)" fill="#8a8a8a"/>
  </g>
</svg>
