<svg xmlns="http://www.w3.org/2000/svg" width="53.6" height="38.528" viewBox="0 0 53.6 38.528">
  <g id="scIcon" transform="translate(0 -71.981)">
    <path id="Pfad_88" data-name="Pfad 88" d="M52.593,83.007,27.466,72.119a1.675,1.675,0,0,0-1.332,0L1.007,83.007a1.676,1.676,0,0,0,0,3.074L10.049,90v10.459c0,5.636,7.358,10.051,16.751,10.051s16.751-4.415,16.751-10.051V90l1.675-.726v17.885a1.675,1.675,0,1,0,3.35,0V87.822l4.016-1.74A1.677,1.677,0,0,0,52.593,83.007ZM26.8,75.481l20.914,9.063-1.659.719L27.008,82.882a1.675,1.675,0,0,0-.416,3.324l13.416,1.677L26.8,93.607,5.886,84.544Zm13.4,24.977c0,1.578-1.3,3.2-3.554,4.458-5.379,2.989-14.3,3-19.694,0-2.259-1.255-3.554-2.88-3.554-4.458V91.451L26.134,96.97a1.675,1.675,0,0,0,1.332,0L40.2,91.451Z" transform="translate(0 0)" fill="#8a8a8a"/>
  </g>
</svg>
