<svg id="upIcon" xmlns="http://www.w3.org/2000/svg" width="44.723" height="44.723" viewBox="0 0 44.723 44.723">
  <g id="Gruppe_111" data-name="Gruppe 111" transform="translate(0)">
    <path id="Pfad_90" data-name="Pfad 90" d="M44.723,20.964V19.217a19.217,19.217,0,0,0-38.434,0v1.747h17.47V34.241H12.6L2.453,24.262,0,26.75l10.132,9.969v8h3.494V37.735H23.759v6.988h3.494V37.735H37.735v6.988h3.494V37.735h3.494V34.241H27.253V20.964Zm-3.59-3.494H34.207A34.652,34.652,0,0,0,32.069,6.215q-.342-.854-.727-1.6A15.765,15.765,0,0,1,41.132,17.47ZM18.943,6.215A34.652,34.652,0,0,0,16.8,17.47H9.88a15.765,15.765,0,0,1,9.79-12.852Q19.286,5.362,18.943,6.215ZM20.3,17.47a30.962,30.962,0,0,1,1.886-9.957c.976-2.441,2.279-4.019,3.319-4.019s2.343,1.577,3.319,4.019a30.963,30.963,0,0,1,1.886,9.957Z" transform="translate(0 0)" fill="#8a8a8a"/>
  </g>
</svg>
