<svg xmlns="http://www.w3.org/2000/svg" width="53.6" height="53.604" viewBox="0 0 53.6 53.604">
  <g id="vvIcon" transform="translate(-0.018)">
    <g id="Gruppe_123" data-name="Gruppe 123" transform="translate(0.018)">
      <g id="Gruppe_122" data-name="Gruppe 122">
        <path id="Pfad_96" data-name="Pfad 96" d="M52.237,16.869a4.717,4.717,0,0,0-6.663,0L40.849,21.6V9.153a4.68,4.68,0,0,0-1.38-3.331L35.028,1.38A4.68,4.68,0,0,0,31.7,0H4.729A4.717,4.717,0,0,0,.018,4.711V48.893A4.717,4.717,0,0,0,4.729,53.6H36.138a4.717,4.717,0,0,0,4.711-4.711V34.93l11.388-11.4A4.709,4.709,0,0,0,52.237,16.869ZM31.427,3.141a1.714,1.714,0,0,1,1.38.46l4.442,4.442a1.714,1.714,0,0,1,.46,1.38H31.427Zm6.282,45.752a1.572,1.572,0,0,1-1.57,1.57H4.729a1.572,1.572,0,0,1-1.57-1.57V4.711a1.572,1.572,0,0,1,1.57-1.57H28.286v7.852a1.57,1.57,0,0,0,1.57,1.57h7.852V24.742l-4.633,4.637-2.22,2.22a1.57,1.57,0,0,0-.379.614l-2.221,6.663a1.57,1.57,0,0,0,1.986,1.986L36.9,38.641a1.569,1.569,0,0,0,.614-.379l.191-.191ZM34.186,32.71l2.221,2.221-.848.848-3.331,1.11,1.11-3.331Zm4.441,0-2.221-2.221,7.549-7.555,2.221,2.221Zm11.388-11.4L48.4,22.932l-2.221-2.221L47.8,19.09a1.57,1.57,0,1,1,2.22,2.221Z" transform="translate(-0.018)" fill="#8a8a8a"/>
      </g>
    </g>
    <g id="Gruppe_125" data-name="Gruppe 125" transform="translate(6.3 15.704)">
      <g id="Gruppe_124" data-name="Gruppe 124">
        <path id="Pfad_97" data-name="Pfad 97" d="M83.574,150H61.588a1.57,1.57,0,0,0,0,3.141H83.574a1.57,1.57,0,0,0,0-3.141Z" transform="translate(-60.018 -150)" fill="#8a8a8a"/>
      </g>
    </g>
    <g id="Gruppe_127" data-name="Gruppe 127" transform="translate(6.3 21.986)">
      <g id="Gruppe_126" data-name="Gruppe 126">
        <path id="Pfad_98" data-name="Pfad 98" d="M77.293,210h-15.7a1.57,1.57,0,0,0,0,3.141h15.7a1.57,1.57,0,0,0,0-3.141Z" transform="translate(-60.018 -210)" fill="#8a8a8a"/>
      </g>
    </g>
    <g id="Gruppe_129" data-name="Gruppe 129" transform="translate(6.3 28.268)">
      <g id="Gruppe_128" data-name="Gruppe 128">
        <path id="Pfad_99" data-name="Pfad 99" d="M77.293,270h-15.7a1.57,1.57,0,0,0,0,3.141h15.7a1.57,1.57,0,0,0,0-3.141Z" transform="translate(-60.018 -270)" fill="#8a8a8a"/>
      </g>
    </g>
    <g id="Gruppe_131" data-name="Gruppe 131" transform="translate(6.3 34.55)">
      <g id="Gruppe_130" data-name="Gruppe 130">
        <path id="Pfad_100" data-name="Pfad 100" d="M77.293,330h-15.7a1.57,1.57,0,0,0,0,3.141h15.7a1.57,1.57,0,0,0,0-3.141Z" transform="translate(-60.018 -330)" fill="#8a8a8a"/>
      </g>
    </g>
    <g id="Gruppe_133" data-name="Gruppe 133" transform="translate(18.863 44.182)">
      <g id="Gruppe_132" data-name="Gruppe 132">
        <path id="Pfad_101" data-name="Pfad 101" d="M191.011,422h-9.423a1.57,1.57,0,0,0,0,3.141h9.423a1.57,1.57,0,0,0,0-3.141Z" transform="translate(-180.018 -422)" fill="#8a8a8a"/>
      </g>
    </g>
  </g>
</svg>
