<svg xmlns="http://www.w3.org/2000/svg" width="48.457" height="48.455" viewBox="0 0 48.457 48.455">
  <g id="waIcon" transform="translate(0 -0.013)">
    <g id="Gruppe_92" data-name="Gruppe 92" transform="translate(0 0.013)">
      <g id="Gruppe_91" data-name="Gruppe 91" transform="translate(0 0)">
        <path id="Pfad_78" data-name="Pfad 78" d="M34.188,26.17l-2.933-2.933,7.751-7.751,1,1a1.42,1.42,0,0,0,2.221-.273L48.254,6.178a1.419,1.419,0,0,0-.214-1.734L44.026.428A1.42,1.42,0,0,0,42.291.215L32.253,6.238a1.42,1.42,0,0,0-.273,2.221l1,1-7.751,7.751L22.3,14.281A11.322,11.322,0,0,0,5.963,1.382a1.42,1.42,0,0,0-.331,2.254L10.96,8.963a1.42,1.42,0,1,1-2.008,2.008L3.624,5.643a1.42,1.42,0,0,0-2.254.331,11.323,11.323,0,0,0,12.9,16.337l.925.925L2.082,36.349A7.1,7.1,0,0,0,12.12,46.387L25.233,33.274l.925.925A11.323,11.323,0,0,0,42.5,47.1a1.42,1.42,0,0,0,.331-2.254L37.5,39.517a1.42,1.42,0,1,1,2.008-2.008l5.328,5.328a1.42,1.42,0,0,0,2.254-.331,11.323,11.323,0,0,0-12.9-16.337ZM42.8,3.22l2.448,2.448L40.732,13.2,35.273,7.737Zm-7.81,8.25L37,13.478l-7.751,7.751L27.24,19.222ZM10.113,44.38A4.259,4.259,0,1,1,4.09,38.357L17.2,25.243l6.023,6.023Zm35.214-5.065L41.514,35.5a4.259,4.259,0,0,0-6.023,6.023L39.3,45.338a8.409,8.409,0,0,1-8.2-2.174,8.563,8.563,0,0,1-2-8.886,1.419,1.419,0,0,0-.334-1.48l-13.1-13.1a1.42,1.42,0,0,0-1.48-.334,8.563,8.563,0,0,1-8.886-2,8.408,8.408,0,0,1-2.174-8.2l3.813,3.813a4.259,4.259,0,0,0,6.023-6.023L9.154,3.143a8.408,8.408,0,0,1,8.2,2.174,8.563,8.563,0,0,1,2,8.886,1.419,1.419,0,0,0,.334,1.48l13.1,13.1a1.42,1.42,0,0,0,1.48.334,8.563,8.563,0,0,1,8.886,2A8.408,8.408,0,0,1,45.327,39.315Z" transform="translate(0 -0.013)" fill="#8a8a8a"/>
      </g>
    </g>
    <g id="Gruppe_94" data-name="Gruppe 94" transform="translate(7.36 29.88)">
      <g id="Gruppe_93" data-name="Gruppe 93">
        <path id="Pfad_79" data-name="Pfad 79" d="M88.865,316.007a1.42,1.42,0,0,0-2.008,0l-8.675,8.675a1.42,1.42,0,1,0,2.008,2.008l8.675-8.675A1.42,1.42,0,0,0,88.865,316.007Z" transform="translate(-77.767 -315.591)" fill="#8a8a8a"/>
      </g>
    </g>
  </g>
</svg>
